<svg width="410" height="403" viewBox="0 0 410 403" fill="none" xmlns="http://www.w3.org/2000/svg">
<path d="M10.164 388.996H16.254V377.404L26.25 358.966H19.866L15.414 367.87C14.532 369.676 13.398 372.154 13.398 372.154H13.314C13.314 372.154 12.264 369.676 11.34 367.87L6.804 358.966H0.168L10.164 377.404V388.996ZM34.0384 389.626C40.7164 389.626 45.2944 384.67 45.2944 378.244C45.2944 371.818 40.7164 366.862 34.0384 366.862C27.3604 366.862 22.7824 371.818 22.7824 378.244C22.7824 384.67 27.3604 389.626 34.0384 389.626ZM34.0384 385.258C30.5104 385.258 28.5784 382.444 28.5784 378.244C28.5784 374.044 30.5104 371.188 34.0384 371.188C37.5244 371.188 39.4984 374.044 39.4984 378.244C39.4984 382.444 37.5244 385.258 34.0384 385.258ZM67.0596 388.996V367.45H61.3476V379.882C61.3476 382.738 59.7096 384.754 57.0216 384.754C54.5856 384.754 53.4516 383.368 53.4516 380.848V367.45H47.7816V381.814C47.7816 386.518 50.4696 389.584 55.2576 389.584C58.2816 389.584 59.9616 388.45 61.4316 386.476H61.5576V388.996H67.0596ZM83.5209 358.966H77.8089V388.996H83.5209V376.774C83.5209 373.834 85.3689 371.818 87.8889 371.818C90.2829 371.818 91.6269 373.456 91.6269 375.766V388.996H97.3389V374.926C97.3389 370.222 94.3569 366.862 89.9049 366.862C86.9649 366.862 85.2009 367.996 83.6469 370.264H83.5209V358.966ZM114.426 388.996H119.928V388.786C119.424 388.408 119.172 387.442 119.172 385.804V374.842C119.172 369.802 116.568 366.904 110.1 366.904C103.8 366.904 100.986 370.222 100.818 374.002H105.9C106.068 371.944 107.37 370.978 110.058 370.978C112.452 370.978 113.67 371.986 113.67 373.54C113.67 375.178 112.032 375.472 108.462 375.976C103.674 376.648 99.8097 378.16 99.8097 382.906C99.8097 387.19 102.918 389.5 107.328 389.5C111.024 389.5 112.578 388.24 113.67 386.602H113.754C113.88 387.568 114.09 388.576 114.426 388.996ZM108.714 385.51C106.698 385.51 105.354 384.796 105.354 382.78C105.354 380.764 106.824 380.092 109.806 379.42C111.234 379.084 112.788 378.748 113.796 378.16V381.394C113.796 383.494 111.99 385.51 108.714 385.51ZM128.31 388.996H133.77L141.288 367.45H135.576L132.048 378.622C131.418 380.68 131.124 382.066 131.124 382.066H131.04C131.04 382.066 130.704 380.68 130.074 378.622L126.63 367.45H120.834L128.31 388.996ZM152.736 389.626C158.28 389.626 161.682 386.392 162.48 382.57H156.852C156.222 384.208 154.92 385.216 152.694 385.216C149.46 385.216 147.612 383.158 147.192 379.84H162.816C162.816 372.154 159.12 366.862 152.19 366.862C145.89 366.862 141.564 371.818 141.564 378.202C141.564 384.628 145.596 389.626 152.736 389.626ZM152.274 371.272C154.878 371.272 156.684 373.162 156.852 375.892H147.276C147.78 373.078 149.25 371.272 152.274 371.272ZM178.1 367.45H172.514V388.996H178.226V376.774C178.226 373.834 180.074 371.818 182.594 371.818C184.988 371.818 186.332 373.456 186.332 375.766V388.996H192.044V374.926C192.044 370.222 189.062 366.862 184.61 366.862C181.67 366.862 179.696 368.08 178.226 370.39H178.1V367.45ZM205.771 389.626C212.449 389.626 217.027 384.67 217.027 378.244C217.027 371.818 212.449 366.862 205.771 366.862C199.093 366.862 194.515 371.818 194.515 378.244C194.515 384.67 199.093 389.626 205.771 389.626ZM205.771 385.258C202.243 385.258 200.311 382.444 200.311 378.244C200.311 374.044 202.243 371.188 205.771 371.188C209.257 371.188 211.231 374.044 211.231 378.244C211.231 382.444 209.257 385.258 205.771 385.258ZM225.477 371.23H228.459V383.872C228.459 387.946 231.525 389.038 234.297 389.038C236.565 389.038 237.867 388.954 237.867 388.954V384.754C237.867 384.754 236.901 384.796 236.187 384.796C234.927 384.796 234.045 384.25 234.045 382.654V371.23H237.741V367.45H234.045V360.73H228.459V367.45H225.477V371.23ZM250.683 389.626C257.361 389.626 261.939 384.67 261.939 378.244C261.939 371.818 257.361 366.862 250.683 366.862C244.005 366.862 239.427 371.818 239.427 378.244C239.427 384.67 244.005 389.626 250.683 389.626ZM250.683 385.258C247.155 385.258 245.223 382.444 245.223 378.244C245.223 374.044 247.155 371.188 250.683 371.188C254.169 371.188 256.143 374.044 256.143 378.244C256.143 382.444 254.169 385.258 250.683 385.258ZM272.658 389.626C275.682 389.626 277.824 388.24 279.084 386.182H279.168V388.996H284.67V358.966H278.958V370.054H278.832C277.656 368.248 275.766 366.862 272.742 366.862C267.366 366.862 263.544 371.524 263.544 378.244C263.544 385.216 267.24 389.626 272.658 389.626ZM273.918 384.838C270.978 384.838 269.34 382.402 269.34 378.244C269.34 374.254 270.936 371.482 274.086 371.482C277.74 371.482 279.084 374.254 279.084 378.37C279.084 382.318 277.32 384.838 273.918 384.838ZM298.589 389.626C305.267 389.626 309.845 384.67 309.845 378.244C309.845 371.818 305.267 366.862 298.589 366.862C291.911 366.862 287.333 371.818 287.333 378.244C287.333 384.67 291.911 389.626 298.589 389.626ZM298.589 385.258C295.061 385.258 293.129 382.444 293.129 378.244C293.129 374.044 295.061 371.188 298.589 371.188C302.075 371.188 304.049 374.044 304.049 378.244C304.049 382.444 302.075 385.258 298.589 385.258ZM321.236 389.626C326.612 389.626 330.308 387.022 330.308 382.696C330.308 377.656 326.318 376.648 322.706 375.892C319.64 375.262 316.784 375.094 316.784 373.246C316.784 371.692 318.254 370.852 320.48 370.852C322.916 370.852 324.386 371.692 324.638 374.002H329.804C329.384 369.676 326.234 366.862 320.564 366.862C315.65 366.862 311.786 369.088 311.786 373.75C311.786 378.454 315.566 379.504 319.43 380.26C322.37 380.848 325.1 381.058 325.1 383.116C325.1 384.628 323.672 385.594 321.152 385.594C318.59 385.594 316.826 384.502 316.448 382.024H311.156C311.492 386.602 314.978 389.626 321.236 389.626ZM340.402 396.052H343.762C348.13 396.052 349.726 394.33 351.364 389.542L358.882 367.45H353.128L350.104 377.152C349.432 379.126 348.844 381.856 348.844 381.856H348.76C348.76 381.856 348.046 379.126 347.374 377.152L344.182 367.45H338.176L343.972 382.78C345.19 386.056 345.61 387.442 345.61 388.618C345.61 390.382 344.686 391.558 342.418 391.558H340.402V396.052ZM370.324 389.626C375.868 389.626 379.27 386.392 380.068 382.57H374.44C373.81 384.208 372.508 385.216 370.282 385.216C367.048 385.216 365.2 383.158 364.78 379.84H380.404C380.404 372.154 376.708 366.862 369.778 366.862C363.478 366.862 359.152 371.818 359.152 378.202C359.152 384.628 363.184 389.626 370.324 389.626ZM369.862 371.272C372.466 371.272 374.272 373.162 374.44 375.892H364.864C365.368 373.078 366.838 371.272 369.862 371.272ZM381.377 371.23H384.359V383.872C384.359 387.946 387.425 389.038 390.197 389.038C392.465 389.038 393.767 388.954 393.767 388.954V384.754C393.767 384.754 392.801 384.796 392.087 384.796C390.827 384.796 389.945 384.25 389.945 382.654V371.23H393.641V367.45H389.945V360.73H384.359V367.45H381.377V371.23Z" fill="#6D6D6D"/>
<path d="M225.87 204.933V212.504H206.993V204.933H225.87Z" fill="#B600A0"/>
<path d="M100.716 164.332C100.436 164.332 100.178 164.16 99.9842 163.837C99.3384 162.719 98.4559 158.267 97.2936 150.265C92.4074 149.125 89.6738 148.265 88.9635 147.62C88.6837 147.362 88.533 146.931 88.6191 146.523C88.7482 145.835 88.8774 145.039 97.0998 142.909C99.4891 127.574 100.415 127.316 100.974 127.165C101.039 127.144 101.103 127.144 101.146 127.144C101.426 127.144 101.685 127.316 101.878 127.638C102.567 128.821 103.536 133.983 104.806 142.931C112.985 145.06 113.114 145.835 113.243 146.544C113.308 146.953 113.179 147.362 112.899 147.641C112.189 148.287 109.434 149.168 104.483 150.308C102.287 163.966 101.469 164.181 100.888 164.353C100.824 164.332 100.759 164.332 100.716 164.332Z" fill="#FFE700"/>
<path d="M278.661 190.314C278.446 190.314 278.231 190.207 278.08 189.992C277.585 189.282 276.896 186.486 275.97 181.41C272.139 180.7 270.008 180.141 269.448 179.732C269.233 179.56 269.126 179.302 269.169 179.044C269.255 178.614 269.362 178.097 275.82 176.764C277.692 167.063 278.424 166.913 278.855 166.805C278.898 166.805 278.941 166.784 279.005 166.784C279.221 166.784 279.436 166.891 279.587 167.106C280.125 167.859 280.9 171.107 281.89 176.764C288.304 178.097 288.412 178.614 288.498 179.044C288.562 179.302 288.455 179.56 288.218 179.732C287.658 180.141 285.506 180.7 281.631 181.41C279.91 190.035 279.264 190.185 278.812 190.271C278.747 190.293 278.704 190.314 278.661 190.314Z" fill="#B600A0"/>
<path d="M213.57 42.1198C213.42 42.1198 213.29 42.0553 213.204 41.9262C212.881 41.4745 212.429 39.6463 211.848 36.377C209.373 35.9038 207.995 35.5597 207.629 35.3015C207.479 35.194 207.414 35.0219 207.457 34.8499C207.522 34.5703 207.586 34.2476 211.762 33.3658C212.968 27.1068 213.441 26.9992 213.721 26.9347C213.742 26.9347 213.785 26.9347 213.807 26.9347C213.958 26.9347 214.087 26.9992 214.173 27.1283C214.517 27.623 215.012 29.7093 215.658 33.3658C219.791 34.2261 219.877 34.5487 219.92 34.8284C219.963 35.0004 219.898 35.1725 219.748 35.28C219.382 35.5381 218.004 35.9038 215.486 36.377C214.367 41.9477 213.958 42.0337 213.656 42.0983C213.635 42.0983 213.592 42.1198 213.57 42.1198Z" fill="#00DBC5"/>
<path d="M98.3395 218.036L103.697 212.683L117.045 226.021L111.688 231.375L98.3395 218.036Z" fill="#00DBC5"/>
<path d="M323.268 62.3668L318.538 66.6318L307.925 54.8793L312.655 50.6144L323.268 62.3668Z" fill="#FFE700"/>
<path d="M317.898 286.497L321.354 291.846L308.043 300.431L304.588 295.082L317.898 286.497Z" fill="#FFE700"/>
<path d="M76.0002 280.412L81.5178 283.596L73.5967 297.305L68.0791 294.121L76.0002 280.412Z" fill="#FFE700"/>
<path d="M93.5165 78.0217L88.159 83.3752L74.811 70.0371L80.1685 64.6837L93.5165 78.0217Z" fill="#B600A0"/>
<path d="M133.35 278.484L137.459 284.846L121.598 295.075L117.489 288.714L133.35 278.484Z" fill="#B600A0"/>
<path d="M337.812 216.141L341.921 222.503L326.06 232.732L321.951 226.371L337.812 216.141Z" fill="#B600A0"/>
<path d="M319.476 161.063L314.662 155.217L329.239 143.231L334.053 149.077L319.476 161.063Z" fill="#00DBC5"/>
<path d="M146.076 93.3125L150.056 97.7196L139.093 107.604L135.114 103.197L146.076 93.3125Z" fill="#F73200"/>
<path d="M204.832 293.339L207.029 298.855L193.31 304.311L191.113 298.796L204.832 293.339Z" fill="#F73200"/>
<path d="M278.432 6.43489L282.412 10.8421L271.45 20.7264L267.47 16.3192L278.432 6.43489Z" fill="#F73200"/>
<path d="M275.659 235.773L279.216 231.018L291.043 239.853L287.485 244.608L275.659 235.773Z" fill="#F73200"/>
<path fill-rule="evenodd" clip-rule="evenodd" d="M178.733 55.4637L148.223 49.3285L149.448 14.5839L104.908 0.957275L103.532 40.3302H103.446L103.275 46.939L178.604 60.8885L178.733 55.4637Z" fill="#5078FF"/>
<path fill-rule="evenodd" clip-rule="evenodd" d="M146.912 18.502C146.568 27.6295 146.203 36.7569 145.859 45.8844C143.367 45.3893 140.875 44.8941 138.382 44.399C136.492 44.0115 134.579 43.6456 132.689 43.2581C130.991 42.9137 129.294 42.5907 127.618 42.2463C123.45 41.4283 119.281 40.5887 115.135 39.7707C112.685 39.2756 110.236 38.802 107.786 38.3069C108.066 27.8232 108.324 17.318 108.603 6.83435C113.115 8.21208 117.627 9.56828 122.118 10.946C125.899 12.0869 129.659 13.2494 133.441 14.3903C135.224 14.9285 136.986 15.4667 138.769 16.0049C140.015 16.3924 141.261 16.7583 142.529 17.1458C143.969 17.5979 145.451 18.0499 146.912 18.502Z" fill="#121212"/>
<path d="M131.722 21.4941C129.143 27.5001 125.233 28.8994 124.503 33.1617C124.159 35.1207 124.438 38.113 127.596 42.2677C123.428 41.4496 119.26 40.6101 115.113 39.7921C114.705 38.0699 114.512 36.4769 114.49 35.0561C114.49 35.0561 114.469 33.0972 114.834 31.2243C115.951 25.3259 120.957 22.8503 122.204 16.8658C122.461 15.6172 122.676 13.6152 122.118 10.9889C125.899 12.1298 129.659 13.2923 133.441 14.4332C133.312 16.0908 132.925 18.674 131.722 21.4941Z" fill="white"/>
<path d="M135.611 34.0875C134.837 36.7568 135.46 40.115 138.383 44.3989C136.492 44.0114 134.58 43.6455 132.689 43.258C130.218 37.5103 130.626 33.8937 131.765 31.5258C133.398 28.1675 136.47 27.371 138.103 23.2378C139.07 20.8053 139.113 18.2866 138.748 16.0048C139.994 16.3922 141.24 16.7582 142.508 17.1457C142.852 21.2358 142.057 24.3572 140.724 26.7683C138.834 30.1911 136.492 31.0306 135.611 34.0875Z" fill="white"/>
<path d="M259.649 84.5468C257.414 80.5213 259.584 76.1513 263.151 73.8263C267.556 70.9632 272.991 71.5014 277.869 70.1452C280.039 69.5425 282.252 68.4876 283.562 66.5717C284.293 65.4954 284.723 64.2899 284.895 63.0198H286.678V66.0981C285.453 68.9612 283.004 71.0709 279.845 72.2118C274.925 73.9986 269.124 73.0729 264.569 75.9575C262.829 77.0554 261.239 78.8637 261.26 81.0379C261.282 82.717 262.356 84.8051 264.182 85.0419C265.815 85.2572 265.815 87.8404 264.182 87.6252C262.249 87.3884 260.616 86.312 259.649 84.5468Z" fill="#F73200"/>
<path d="M244.114 91.2417C239.13 90.4667 234.489 87.2592 231.051 83.7073C229.568 82.1788 228.15 80.4997 226.281 79.4234V76.5818C229.203 77.8088 231.481 80.5858 233.78 82.8031C235.713 84.676 237.926 86.1829 240.354 87.3238C242.675 88.4217 245.726 89.498 248.218 88.3356C250.173 87.4314 251.205 85.4079 250.173 83.4059C249.164 81.49 247.316 80.1338 245.962 78.4547C243.019 74.7951 242.524 69.8223 243.921 65.4308C244.179 64.5912 244.523 63.7947 244.909 63.0198H247.853C245.962 66.1842 245.146 70.0376 246.241 73.6326C246.907 75.7853 248.326 77.2922 249.83 78.8852C251.205 80.3275 252.687 81.942 253.074 83.9656C253.504 86.1398 252.623 88.2495 250.925 89.6487C249.013 91.2417 246.521 91.6292 244.114 91.2417Z" fill="#F73200"/>
<path d="M275.505 107.322H272.497C271.53 105.708 270.606 104.158 269.231 102.78C265.858 99.379 261.002 97.4631 256.254 98.7762C251.892 99.9817 249.658 103.921 247.101 107.322H243.814C243.857 107.279 243.9 107.215 243.943 107.172C246.564 104.115 248.412 100.391 251.785 98.0443C255.695 95.3104 261.002 95.1812 265.299 97.011C269.597 98.8408 272.755 102.35 274.968 106.375C275.119 106.634 275.29 106.978 275.505 107.322Z" fill="#F73200"/>
<path d="M286.699 100.821V104.072C285.475 105.105 284.336 106.246 283.133 107.322H279.029C279.437 107.042 279.802 106.741 280.125 106.504C282.058 105.019 283.713 103.232 285.604 101.682C285.969 101.381 286.334 101.101 286.699 100.821Z" fill="#F73200"/>
<path d="M299.505 92.8564C299.29 93.4806 298.538 93.9327 297.743 93.7605L294.907 93.3084L294.628 93.2654L290.76 92.6411L289.836 92.4904L287.43 92.1029L284.1 91.5647H284.035L280.017 90.9189L279.91 90.8974C279.287 89.9717 278.707 89.3259 277.912 89.3044C277.224 89.3044 276.494 89.7134 276.171 90.2946C273.657 89.8856 271.144 89.4766 268.651 89.0891C267.749 88.7016 266.846 88.3357 265.944 87.9482C264.999 87.5392 264.053 87.1517 263.108 86.7427C264.096 86.6781 265.106 86.592 266.094 86.5274C267.104 86.4628 268.093 86.3767 269.102 86.3121L274.968 87.2593C275.634 88.4003 277.933 88.3787 280.06 88.0774L281.435 88.2926L286.484 89.1106L289.729 89.6273L289.815 89.6488L289.944 89.6704L293.424 90.2301L293.768 90.2731L294.585 90.4023L298.28 91.005C299.183 91.1127 299.741 92.1029 299.505 92.8564Z" fill="black"/>
<path d="M266.094 86.9354C266.094 87.2799 266.03 87.6243 265.901 87.9257C264.956 87.5167 264.01 87.1292 263.065 86.7202C264.053 86.6556 265.063 86.5695 266.051 86.5049C266.094 86.634 266.094 86.7847 266.094 86.9354Z" fill="white"/>
<path fill-rule="evenodd" clip-rule="evenodd" d="M257.07 270.196C251.806 275.987 248.068 278.613 245.769 279.926C245.318 280.184 240.849 282.682 240.763 282.552V282.531C240.097 280.959 207.481 183.679 206.213 179.782C199.768 179.653 192.097 179.007 183.567 177.35C174.651 175.606 167.002 173.174 160.792 170.741C163.478 172.528 167.324 175.499 170.762 180.105C177.981 189.771 177.68 198.92 180.538 209.533C181.956 214.828 184.47 221.609 189.304 229.23C190.829 231.663 192.591 234.16 194.632 236.743C194.998 237.217 195.363 237.669 195.75 238.142C195.234 238.314 194.718 238.508 194.203 238.68C193.257 239.003 192.312 239.348 191.367 239.671C187.65 240.984 183.932 242.275 180.237 243.589C178.819 244.084 177.401 244.579 175.983 245.074C175.983 245.074 175.983 245.074 175.983 245.095C174.973 243.739 173.92 242.275 172.803 240.725C169.537 236.119 165.863 230.608 162.06 224.322C149.039 202.644 127.382 166.543 138.49 151.711C144.807 143.273 159.61 144.521 183.546 146.545C190.507 147.126 196.394 148.073 199.016 148.525C212.294 150.807 223.015 154.165 230.535 156.899C230.535 156.899 236.444 172.42 238.55 182.753C240.612 192.871 241.257 201.912 241.278 209.231C245.79 213.365 248.175 217.326 249.443 219.887C254.857 230.78 251.763 239.219 254.514 257.689C255.351 263.243 256.426 267.677 257.07 270.196Z" fill="#FF6334"/>
<path fill-rule="evenodd" clip-rule="evenodd" d="M233.672 94.8367C233.457 97.1616 233.178 100.348 232.899 103.361C228.924 101.747 224.82 100.714 220.759 100.089L221.253 96.7095C218.159 96.1714 215.538 94.8152 214.356 92.8132C212.444 89.5626 214.421 84.7405 216.612 81.6406L210.145 75.3332L219.857 78.1532C221.834 76.5172 224.347 75.0533 226.947 74.5582C227.141 75.5485 227.871 76.7755 228.666 77.529C230.492 79.3157 232.92 79.0789 233.264 79.0574C232.362 80.0691 229.762 83.2551 229.977 87.6251C230.063 89.9716 231.094 94.1263 233.672 94.8367Z" fill="#FF8F6D"/>
<path d="M239.065 77.7874C235.67 73.0299 228.301 71.7383 227.098 73.3743C226.883 73.6757 226.84 74.0847 226.926 74.5583C227.119 75.5486 227.85 76.7756 228.645 77.5291C230.471 79.3158 232.899 79.079 233.243 79.0575C232.34 80.0692 229.74 83.2552 229.955 87.6252C230.084 89.9717 231.094 94.1479 233.672 94.8368C233.694 94.8368 233.715 94.8368 233.715 94.8583C235.112 95.2027 236.422 94.4062 236.788 94.191C240.806 91.6293 242.868 83.1261 239.065 77.7874Z" fill="url(#paint0_linear_492_173)"/>
<path d="M218.503 90.5529C216.075 90.5529 214.421 89.1106 214.399 89.0891L215.388 87.9697L214.894 88.5294L215.388 87.9697C215.517 88.0773 218.589 90.6821 222.392 87.3884L223.381 88.5294C221.597 90.0793 219.921 90.5529 218.503 90.5529Z" fill="black"/>
<path d="M221.855 80.6719C222.413 80.6719 222.865 80.2189 222.865 79.6601C222.865 79.1013 222.413 78.6483 221.855 78.6483C221.297 78.6483 220.845 79.1013 220.845 79.6601C220.845 80.2189 221.297 80.6719 221.855 80.6719Z" fill="black"/>
<path d="M224.141 74.9681L225.595 74.5837L226.79 79.1213L225.335 79.5057L224.141 74.9681Z" fill="black"/>
<path fill-rule="evenodd" clip-rule="evenodd" d="M226.174 80.7797L233.565 84.7622L233.178 85.5156L225.98 81.6407C225.4 83.1476 223.961 84.2455 222.242 84.2455C220.05 84.2455 218.267 82.4588 218.267 80.263C218.267 78.0673 220.05 76.2805 222.242 76.2805C224.433 76.2805 226.217 78.0673 226.217 80.263C226.217 80.4352 226.195 80.6075 226.174 80.7797ZM219.104 80.262C219.104 81.9841 220.5 83.3834 222.219 83.3834C223.938 83.3834 225.335 81.9841 225.335 80.262C225.335 78.5398 223.938 77.1406 222.219 77.1406C220.5 77.1406 219.104 78.5398 219.104 80.262Z" fill="black"/>
<path fill-rule="evenodd" clip-rule="evenodd" d="M229.117 85.3863C232.813 83.4274 236.122 82.9538 237.411 84.2024C237.884 84.6544 237.948 85.1926 237.948 85.3433C238.141 87.539 233.973 90.0146 230.17 90.2514C229.418 90.2945 228.816 90.2514 228.473 90.2084C228.709 88.5723 228.924 86.9793 229.117 85.3863Z" fill="#FF8F6D"/>
<path d="M204.774 244.127L203.828 245.16L202.475 246.624L200.756 248.454L199.402 249.917L199.338 249.982L198.908 250.456L197.49 251.984L196.588 252.953L196.115 253.426L194.439 255.127L193.859 255.73L171.922 277.795L171.535 278.182L170.783 278.936C170.783 278.936 170.783 278.936 170.762 278.936C170.676 278.893 170.59 278.828 170.504 278.785C170.439 278.742 170.396 278.721 170.332 278.677C170.267 278.634 170.181 278.57 170.117 278.527C170.052 278.484 169.967 278.419 169.902 278.376C169.838 278.333 169.773 278.268 169.709 278.204C169.644 278.161 169.58 278.096 169.537 278.053C169.537 278.053 169.537 278.053 169.515 278.032C169.451 277.967 169.386 277.924 169.322 277.859C169.258 277.795 169.193 277.73 169.15 277.666C169.107 277.601 169.043 277.558 169 277.494C168.957 277.45 168.914 277.386 168.871 277.343C168.828 277.3 168.785 277.257 168.763 277.192C168.677 277.084 168.591 276.977 168.527 276.869C168.291 276.525 168.076 276.159 167.925 275.793C167.689 275.212 167.517 274.609 167.496 273.985C167.474 273.554 167.517 273.102 167.625 272.65C167.882 271.789 168.14 270.928 168.398 270.067L168.957 268.215C169.279 267.161 169.601 266.106 169.924 265.051C169.967 264.922 170.01 264.793 170.031 264.663C172.008 258.141 173.984 251.618 175.961 245.095V245.074C177.379 244.579 178.797 244.084 180.215 243.588C183.932 242.297 187.649 240.984 191.345 239.671C192.29 239.348 193.236 239.003 194.181 238.68C194.697 238.508 195.212 238.314 195.728 238.142C195.75 238.142 195.771 238.164 195.793 238.185C195.814 238.207 195.857 238.228 195.9 238.271C196.007 238.336 196.136 238.422 196.308 238.53C196.33 238.551 196.373 238.573 196.394 238.594L196.416 238.616C196.437 238.637 196.437 238.637 196.459 238.637C196.48 238.637 196.502 238.659 196.502 238.68C196.545 238.702 196.566 238.723 196.609 238.745C196.63 238.745 196.63 238.766 196.652 238.766C196.695 238.809 196.759 238.831 196.802 238.874C196.845 238.917 196.91 238.939 196.953 238.982C196.974 238.982 196.996 239.003 197.017 239.025C197.06 239.046 197.082 239.068 197.125 239.089C197.168 239.132 197.232 239.154 197.275 239.197C197.275 239.197 197.297 239.197 197.297 239.218C197.361 239.261 197.425 239.305 197.468 239.348C197.597 239.434 197.726 239.52 197.855 239.606C198.242 239.864 198.693 240.166 199.144 240.467C199.639 240.79 200.154 241.134 200.67 241.479C200.713 241.522 200.777 241.543 200.82 241.586C200.928 241.673 201.057 241.737 201.164 241.823C201.185 241.845 201.207 241.845 201.228 241.866C201.422 241.995 201.615 242.125 201.809 242.254C202.195 242.512 202.582 242.77 202.969 243.029C203.205 243.179 203.442 243.352 203.678 243.502C203.785 243.588 203.914 243.653 204.022 243.739C204.043 243.761 204.065 243.782 204.108 243.804C204.215 243.89 204.344 243.954 204.451 244.04C204.602 244.019 204.688 244.084 204.774 244.127Z" fill="#4D00FF"/>
<path d="M204.774 244.127L203.828 245.16L202.475 246.624L200.756 248.454L199.402 249.918L199.338 249.982L198.908 250.456L197.49 251.984L196.588 252.953L196.115 253.426L194.439 255.127L193.859 255.73L171.922 277.795L171.535 278.183L170.783 278.936C170.783 278.936 170.783 278.936 170.762 278.936C170.676 278.893 170.59 278.828 170.504 278.785C170.439 278.742 170.396 278.721 170.332 278.678C170.267 278.635 170.181 278.57 170.117 278.527C170.053 278.484 169.967 278.419 169.902 278.376C169.838 278.333 169.773 278.269 169.709 278.204C169.644 278.161 169.58 278.096 169.537 278.053C169.537 278.053 169.537 278.053 169.515 278.032C169.451 277.967 169.386 277.924 169.322 277.86C169.258 277.795 169.193 277.73 169.15 277.666C169.107 277.601 169.043 277.558 169 277.494C168.957 277.451 168.914 277.386 168.871 277.343C168.828 277.3 168.785 277.257 168.763 277.192C168.677 277.085 168.592 276.977 168.527 276.869C168.291 276.525 168.076 276.159 167.925 275.793C167.689 275.212 167.517 274.609 167.496 273.985C168.076 274.092 168.699 274.2 169.322 274.243C174.35 274.544 177.594 269.077 189.411 257.065C190.464 256.01 191.302 255.149 191.818 254.653C191.173 252.931 190.443 250.477 190.228 247.463C190.034 244.794 190.271 242.512 190.572 240.812C190.572 240.812 190.572 240.812 190.572 240.79C191.216 240.489 191.861 240.187 192.505 239.864C193.021 239.628 193.515 239.369 194.031 239.132C194.589 238.788 195.17 238.465 195.728 238.121C195.75 238.142 195.771 238.142 195.793 238.164C195.814 238.185 195.857 238.207 195.9 238.25C196.007 238.314 196.136 238.401 196.308 238.508C196.33 238.53 196.373 238.551 196.394 238.573L196.416 238.594C196.437 238.616 196.48 238.637 196.523 238.659C196.566 238.68 196.588 238.702 196.631 238.723C196.652 238.723 196.652 238.745 196.674 238.745C196.717 238.788 196.781 238.81 196.824 238.853C196.867 238.896 196.931 238.917 196.974 238.96C196.996 238.982 197.017 238.982 197.039 239.003C197.082 239.025 197.103 239.046 197.146 239.068C197.168 239.089 197.211 239.111 197.232 239.132C197.254 239.154 197.297 239.176 197.318 239.197C197.383 239.24 197.447 239.283 197.49 239.326C197.619 239.412 197.748 239.498 197.877 239.585C198.263 239.843 198.715 240.144 199.166 240.446C199.66 240.769 200.176 241.113 200.691 241.457C200.734 241.5 200.799 241.522 200.842 241.565C200.949 241.651 201.078 241.716 201.186 241.802C201.207 241.823 201.229 241.823 201.25 241.845C201.443 241.974 201.637 242.103 201.83 242.232C202.217 242.491 202.604 242.749 202.99 243.007C203.227 243.158 203.463 243.33 203.699 243.481C203.807 243.567 203.936 243.632 204.043 243.718C204.065 243.739 204.086 243.761 204.129 243.782C204.237 243.868 204.365 243.933 204.473 244.019C204.602 244.019 204.688 244.084 204.774 244.127Z" fill="white"/>
<path d="M204.774 244.127L203.828 245.16L202.475 246.624L200.756 248.454L199.402 249.918L199.338 249.982L198.908 250.456L197.49 251.984L196.588 252.953L196.115 253.426L194.439 255.127L193.859 255.73C192.119 251.209 192.119 245.225 194.095 239.154V239.132C194.138 238.982 194.203 238.831 194.246 238.659C194.761 238.487 195.277 238.293 195.793 238.121C195.814 238.121 195.836 238.142 195.857 238.164C195.879 238.185 195.922 238.207 195.964 238.25C196.072 238.314 196.201 238.401 196.373 238.508C196.394 238.53 196.437 238.551 196.459 238.573L196.48 238.594C196.502 238.616 196.502 238.616 196.523 238.616C196.545 238.616 196.566 238.637 196.566 238.659C196.609 238.68 196.631 238.702 196.674 238.723C196.695 238.723 196.695 238.745 196.716 238.745C196.759 238.788 196.824 238.81 196.867 238.853C196.91 238.896 196.974 238.917 197.017 238.96C197.039 238.96 197.06 238.982 197.082 239.003C197.125 239.025 197.146 239.046 197.189 239.068C197.211 239.089 197.254 239.111 197.275 239.132C197.297 239.154 197.318 239.154 197.34 239.176C197.34 239.176 197.361 239.176 197.361 239.197C197.426 239.24 197.49 239.283 197.533 239.326C197.662 239.412 197.791 239.498 197.92 239.585C198.306 239.843 198.758 240.144 199.209 240.446C199.703 240.769 200.219 241.113 200.734 241.457C200.777 241.5 200.842 241.522 200.885 241.565C200.992 241.651 201.121 241.716 201.229 241.802C201.25 241.823 201.271 241.823 201.293 241.845C201.486 241.974 201.68 242.103 201.873 242.232C202.26 242.491 202.647 242.749 203.033 243.007C203.27 243.158 203.506 243.33 203.742 243.481C203.85 243.567 203.979 243.632 204.086 243.718C204.108 243.739 204.129 243.761 204.172 243.782C204.28 243.868 204.408 243.933 204.516 244.019C204.602 244.019 204.688 244.084 204.774 244.127Z" fill="#B600A0"/>
<path fill-rule="evenodd" clip-rule="evenodd" d="M208.834 246.861C208.62 247.076 208.383 247.291 208.147 247.506C207.653 247.98 207.18 248.454 206.686 248.927C206.084 249.53 205.461 250.111 204.86 250.692C204.365 251.166 203.893 251.64 203.399 252.113C202.711 252.781 202.023 253.448 201.336 254.115C200.842 254.589 200.369 255.062 199.875 255.536C197.361 257.947 194.869 260.38 192.355 262.791C189.067 265.955 185.501 268.883 182.428 272.263C182.299 272.413 182.17 272.564 182.02 272.715C182.02 272.715 176.842 278.57 173.684 279.194C172.158 279.496 171.105 279.087 170.804 278.936C170.74 278.914 170.719 278.893 170.719 278.893C170.525 278.807 170.267 278.656 169.967 278.441C169.859 278.355 169.494 278.096 169.086 277.644C168.871 277.429 168.656 277.149 168.463 276.826C168.291 276.568 168.097 276.224 167.925 275.771C168.742 275.858 169.687 275.858 170.761 275.707C176.326 274.889 178.991 270.239 186.811 262.339C188.358 260.789 190.722 258.464 193.816 255.751C194.267 254.826 194.718 253.9 195.169 252.974L196.007 251.231C196.416 250.413 196.802 249.595 197.211 248.777C197.49 248.195 197.769 247.614 198.049 247.033C198.414 246.301 198.758 245.569 199.101 244.837C199.381 244.256 199.66 243.675 199.939 243.093C200.197 242.555 200.455 242.017 200.734 241.479C201.228 241.436 205.182 241.221 207.502 244.105C208.297 245.052 208.663 246.086 208.834 246.861Z" fill="#4ABA6B"/>
<path d="M208.168 247.506C207.674 247.98 207.202 248.454 206.707 248.927L202.453 246.624L199.101 244.815C199.381 244.234 199.66 243.653 199.939 243.072L203.807 245.16L208.168 247.506Z" fill="#FFE323"/>
<path d="M204.881 250.692C204.387 251.166 203.914 251.64 203.42 252.113L199.381 249.939L197.189 248.755C197.469 248.174 197.748 247.592 198.027 247.011L200.713 248.475L204.881 250.692Z" fill="#FFE323"/>
<path d="M201.357 254.115C200.863 254.589 200.391 255.062 199.896 255.536L196.072 253.469L195.148 252.974L195.986 251.23L197.447 252.027L201.357 254.115Z" fill="#FFE323"/>
<path d="M184.878 255.751C186.48 255.751 187.778 254.45 187.778 252.845C187.778 251.24 186.48 249.939 184.878 249.939C183.276 249.939 181.977 251.24 181.977 252.845C181.977 254.45 183.276 255.751 184.878 255.751Z" fill="#F73200"/>
<path d="M182.45 272.262C182.321 272.413 182.192 272.564 182.042 272.715C182.042 272.715 176.864 278.57 173.705 279.194C171.879 279.56 170.719 278.893 170.719 278.893C170.525 278.807 170.267 278.656 169.967 278.441C169.859 278.355 169.494 278.096 169.086 277.644C169.709 277.601 170.375 277.666 170.998 277.903C171.793 278.225 171.879 278.548 172.459 278.656C174.178 278.957 175.553 276.46 177.551 274.717C178.625 273.812 180.151 272.844 182.45 272.262Z" fill="#F73200"/>
<path d="M195.942 238.25C195.298 238.551 194.675 238.853 194.051 239.154C192.891 239.714 191.752 240.252 190.592 240.79C190.485 240.855 190.356 240.898 190.248 240.962C187.455 242.297 184.598 243.632 181.762 244.966C180.172 248.97 178.796 253.06 177.722 257.086C177.421 258.205 177.164 259.26 176.906 260.272C175.617 265.352 174.693 269.033 171.663 270.067C171.169 270.239 170.653 270.304 170.116 270.304C169.579 270.304 169.02 270.217 168.419 270.045L168.977 268.194C169.751 268.409 170.438 268.409 171.04 268.215C173.081 267.527 173.898 264.297 175.015 259.798C175.273 258.765 175.531 257.71 175.831 256.591C176.97 252.372 178.41 248.088 180.086 243.89L180.215 243.567V243.545L180.558 243.373C183.523 241.995 186.488 240.575 189.389 239.197C191.129 238.379 192.87 237.539 194.61 236.7C194.975 237.173 195.341 237.625 195.727 238.099C195.749 238.099 195.77 238.121 195.792 238.142C195.856 238.207 195.899 238.228 195.942 238.25Z" fill="#FFE323"/>
<path d="M268.608 275.126L267.899 276.331L266.911 278.075L265.665 280.249L264.655 281.993L264.612 282.079L264.29 282.617L263.237 284.425L262.571 285.588L262.205 286.169L260.938 288.192L260.508 288.903L244.136 315.317L243.856 315.769L243.298 316.673C243.298 316.673 243.298 316.673 243.276 316.673C243.19 316.651 243.083 316.608 242.997 316.587C242.933 316.565 242.868 316.544 242.804 316.522C242.718 316.501 242.632 316.457 242.546 316.414C242.46 316.371 242.395 316.35 242.31 316.307C242.224 316.264 242.159 316.242 242.073 316.199C242.009 316.156 241.923 316.113 241.858 316.092C241.858 316.092 241.837 316.092 241.837 316.07C241.751 316.027 241.686 315.984 241.6 315.941C241.536 315.898 241.45 315.855 241.386 315.79C241.321 315.747 241.257 315.704 241.192 315.661C241.128 315.618 241.085 315.575 241.042 315.553C240.999 315.51 240.956 315.489 240.891 315.446C240.784 315.36 240.677 315.273 240.591 315.187C240.29 314.908 239.989 314.606 239.753 314.262C239.387 313.767 239.108 313.207 238.936 312.604C238.829 312.174 238.764 311.743 238.764 311.269C238.829 310.365 238.893 309.483 238.936 308.579L239.065 306.641C239.13 305.543 239.216 304.445 239.28 303.348C239.28 303.218 239.301 303.089 239.301 302.96C239.774 296.157 240.225 289.355 240.677 282.552V282.531C241.944 281.734 243.212 280.916 244.48 280.12C247.81 278.01 251.14 275.901 254.449 273.812C255.287 273.274 256.146 272.736 256.984 272.198C257.457 271.897 257.908 271.617 258.381 271.315C258.402 271.315 258.424 271.337 258.445 271.337C258.488 271.358 258.531 271.358 258.574 271.38C258.682 271.423 258.832 271.488 259.026 271.552C259.047 271.574 259.09 271.574 259.133 271.595C259.154 271.595 259.154 271.595 259.176 271.617C259.197 271.617 259.219 271.638 259.219 271.638C259.24 271.638 259.262 271.66 259.283 271.66C259.326 271.681 259.348 271.681 259.391 271.703C259.412 271.703 259.412 271.703 259.434 271.724C259.477 271.746 259.541 271.767 259.606 271.789C259.67 271.81 259.713 271.832 259.778 271.853C259.799 271.853 259.82 271.875 259.842 271.875C259.885 271.897 259.928 271.897 259.971 271.918C260.014 271.94 260.078 271.961 260.143 271.983H260.164C260.229 272.004 260.293 272.026 260.379 272.069C260.53 272.112 260.658 272.176 260.809 272.241C261.26 272.413 261.733 272.585 262.27 272.779C262.807 272.994 263.387 273.21 263.989 273.425C264.053 273.446 264.096 273.468 264.161 273.49C264.29 273.533 264.418 273.597 264.547 273.64C264.569 273.64 264.59 273.662 264.612 273.662C264.827 273.748 265.042 273.834 265.256 273.899C265.686 274.071 266.116 274.221 266.546 274.394C266.803 274.501 267.083 274.587 267.341 274.695C267.469 274.738 267.598 274.803 267.727 274.846C267.749 274.867 267.792 274.867 267.813 274.889C267.942 274.932 268.071 274.996 268.2 275.039C268.415 275.061 268.522 275.104 268.608 275.126Z" fill="#4D00FF"/>
<path d="M268.608 275.125L267.899 276.331L266.911 278.075L265.665 280.249L264.655 281.993L264.612 282.079L264.29 282.617L263.237 284.425L262.571 285.588L262.205 286.169L260.938 288.192L260.508 288.903L244.136 315.316L243.857 315.768L243.298 316.673C243.298 316.673 243.298 316.673 243.276 316.673C243.19 316.651 243.083 316.608 242.997 316.586C242.933 316.565 242.868 316.543 242.804 316.522C242.718 316.5 242.632 316.457 242.546 316.414C242.46 316.371 242.396 316.35 242.31 316.307C242.224 316.264 242.159 316.242 242.073 316.199C242.009 316.156 241.923 316.113 241.858 316.091C241.858 316.091 241.837 316.091 241.837 316.07C241.751 316.027 241.686 315.984 241.601 315.941C241.536 315.898 241.45 315.855 241.386 315.79C241.321 315.747 241.257 315.704 241.192 315.661C241.128 315.618 241.085 315.575 241.042 315.553C240.999 315.51 240.956 315.489 240.891 315.446C240.784 315.359 240.677 315.273 240.591 315.187C240.29 314.907 239.989 314.606 239.753 314.262C239.387 313.766 239.108 313.207 238.936 312.604C239.516 312.561 240.161 312.561 240.784 312.453C245.747 311.614 247.681 305.565 256.512 291.206C257.285 289.936 257.93 288.924 258.317 288.321C257.285 286.793 256.039 284.554 255.137 281.67C254.342 279.108 254.062 276.826 253.998 275.125C253.998 275.125 253.998 275.125 253.998 275.104C254.557 274.673 255.115 274.221 255.674 273.769C256.125 273.425 256.555 273.059 256.984 272.714C257.457 272.262 257.93 271.81 258.424 271.337C258.445 271.337 258.467 271.358 258.488 271.358C258.531 271.38 258.574 271.38 258.617 271.401C258.725 271.444 258.875 271.509 259.069 271.573C259.09 271.595 259.133 271.595 259.176 271.617C259.197 271.617 259.197 271.617 259.219 271.638C259.262 271.66 259.283 271.66 259.326 271.681C259.369 271.703 259.391 271.703 259.434 271.724C259.455 271.724 259.455 271.724 259.477 271.746C259.52 271.767 259.584 271.789 259.649 271.81C259.713 271.832 259.756 271.853 259.821 271.875C259.842 271.875 259.864 271.896 259.885 271.896C259.928 271.918 259.971 271.918 260.014 271.939C260.035 271.961 260.078 271.961 260.1 271.982C260.143 272.004 260.164 272.004 260.207 272.026C260.272 272.047 260.336 272.069 260.422 272.112C260.573 272.155 260.701 272.219 260.852 272.284C261.303 272.456 261.776 272.628 262.313 272.822C262.85 273.037 263.43 273.253 264.032 273.468C264.096 273.489 264.139 273.511 264.204 273.532C264.333 273.575 264.461 273.64 264.59 273.683C264.612 273.683 264.633 273.705 264.655 273.705C264.87 273.791 265.085 273.877 265.299 273.941C265.729 274.114 266.159 274.264 266.589 274.437C266.846 274.544 267.126 274.63 267.384 274.738C267.512 274.781 267.641 274.846 267.77 274.889C267.792 274.91 267.835 274.91 267.856 274.932C267.985 274.975 268.114 275.039 268.243 275.082C268.415 275.061 268.522 275.104 268.608 275.125Z" fill="white"/>
<path d="M268.608 275.126L267.899 276.331L266.911 278.075L265.665 280.249L264.655 281.993L264.612 282.079L264.29 282.617L263.237 284.425L262.571 285.588L262.205 286.169L260.938 288.193L260.508 288.903C257.801 284.877 256.447 279.065 257.006 272.693V272.672C257.027 272.499 257.027 272.349 257.049 272.176C257.522 271.875 257.973 271.595 258.445 271.294C258.467 271.294 258.488 271.315 258.51 271.315C258.553 271.337 258.596 271.337 258.639 271.358C258.746 271.401 258.897 271.466 259.09 271.531C259.111 271.552 259.154 271.552 259.197 271.574C259.219 271.574 259.219 271.574 259.24 271.595C259.262 271.595 259.283 271.617 259.283 271.617C259.305 271.617 259.326 271.638 259.348 271.638C259.391 271.66 259.412 271.66 259.455 271.681C259.477 271.681 259.477 271.681 259.498 271.703C259.541 271.724 259.606 271.746 259.67 271.767C259.735 271.789 259.778 271.81 259.842 271.832C259.863 271.832 259.885 271.854 259.906 271.854C259.949 271.875 259.992 271.875 260.035 271.897C260.057 271.918 260.1 271.918 260.121 271.94C260.143 271.94 260.164 271.961 260.186 271.961H260.207C260.272 271.983 260.336 272.004 260.422 272.047C260.573 272.09 260.701 272.155 260.852 272.219C261.303 272.392 261.776 272.564 262.313 272.758C262.85 272.973 263.43 273.188 264.032 273.403C264.096 273.425 264.139 273.447 264.204 273.468C264.333 273.511 264.461 273.576 264.59 273.619C264.612 273.619 264.633 273.64 264.655 273.64C264.87 273.726 265.085 273.812 265.299 273.877C265.729 274.049 266.159 274.2 266.589 274.372C266.846 274.48 267.126 274.566 267.384 274.674C267.512 274.717 267.641 274.781 267.77 274.824C267.792 274.846 267.835 274.846 267.856 274.867C267.985 274.91 268.114 274.975 268.243 275.018C268.415 275.061 268.522 275.104 268.608 275.126Z" fill="#B600A0"/>
<path fill-rule="evenodd" clip-rule="evenodd" d="M273.185 276.869C273.013 277.128 272.841 277.407 272.669 277.666C272.304 278.247 271.939 278.807 271.573 279.366C271.122 280.077 270.649 280.787 270.198 281.519C269.833 282.079 269.468 282.66 269.102 283.22C268.587 284.016 268.071 284.813 267.556 285.631C267.19 286.19 266.825 286.772 266.46 287.331C264.569 290.259 262.657 293.187 260.766 296.093C258.274 299.925 255.459 303.563 253.224 307.567C253.117 307.739 253.031 307.911 252.924 308.083C252.924 308.083 249.185 314.951 246.242 316.264C244.823 316.91 243.706 316.737 243.362 316.673C243.298 316.651 243.255 316.651 243.255 316.651C243.04 316.608 242.761 316.522 242.439 316.393C242.31 316.35 241.901 316.178 241.407 315.812C241.149 315.639 240.892 315.424 240.612 315.166C240.397 314.951 240.118 314.671 239.86 314.262C240.677 314.154 241.601 313.939 242.589 313.551C247.831 311.485 249.4 306.361 255.223 296.911C256.383 295.038 258.166 292.24 260.573 288.903C260.809 287.891 261.024 286.901 261.26 285.889L261.69 283.995C261.905 283.112 262.098 282.208 262.291 281.325C262.442 280.701 262.571 280.055 262.721 279.431C262.893 278.635 263.086 277.86 263.258 277.063C263.409 276.439 263.559 275.814 263.688 275.169C263.817 274.587 263.946 274.006 264.096 273.403C264.569 273.253 268.372 272.155 271.294 274.458C272.261 275.233 272.841 276.159 273.185 276.869Z" fill="#4ABA6B"/>
<path d="M272.669 277.644C272.304 278.226 271.939 278.785 271.573 279.345L266.932 278.075L263.28 277.063C263.43 276.439 263.581 275.815 263.71 275.169L267.942 276.331L272.669 277.644Z" fill="#FFE323"/>
<path d="M270.177 281.498C269.811 282.057 269.446 282.639 269.081 283.198L264.676 281.971L262.291 281.304C262.442 280.68 262.571 280.034 262.721 279.41L265.686 280.228L270.177 281.498Z" fill="#FFE323"/>
<path d="M267.513 285.609C267.147 286.169 266.782 286.75 266.417 287.31L262.227 286.147L261.217 285.868L261.647 283.973L263.237 284.404L267.513 285.609Z" fill="#FFE323"/>
<path d="M251.183 290.991C252.785 290.991 254.084 289.69 254.084 288.085C254.084 286.48 252.785 285.179 251.183 285.179C249.581 285.179 248.283 286.48 248.283 288.085C248.283 289.69 249.581 290.991 251.183 290.991Z" fill="#F73200"/>
<path d="M253.16 307.567C253.053 307.739 252.967 307.911 252.859 308.084C252.859 308.084 249.121 314.951 246.177 316.264C244.48 317.017 243.212 316.63 243.212 316.63C242.997 316.587 242.718 316.501 242.396 316.372C242.267 316.329 241.858 316.156 241.364 315.79C241.966 315.597 242.61 315.51 243.298 315.618C244.157 315.747 244.308 316.049 244.888 316.027C246.628 315.941 247.402 313.186 248.97 311.054C249.787 309.935 251.054 308.643 253.16 307.567Z" fill="#F73200"/>
<path d="M258.682 271.38C258.123 271.81 257.586 272.262 257.027 272.693C256.017 273.489 255.029 274.286 254.019 275.082C253.912 275.169 253.826 275.233 253.718 275.319C251.29 277.235 248.82 279.194 246.349 281.132C245.683 285.394 245.274 289.678 245.124 293.854C245.081 295.017 245.06 296.093 245.038 297.126C244.931 302.379 244.866 306.168 242.137 307.847C241.686 308.126 241.214 308.32 240.698 308.428C240.182 308.557 239.602 308.6 239 308.557L239.129 306.62C239.924 306.663 240.59 306.512 241.128 306.168C242.954 305.048 243.018 301.69 243.126 297.062C243.147 296.007 243.169 294.909 243.212 293.746C243.384 289.376 243.813 284.877 244.522 280.421L244.587 280.077V280.055L244.888 279.818C247.466 277.795 250.044 275.771 252.558 273.769C254.062 272.564 255.566 271.38 257.092 270.174C257.543 270.54 258.015 270.906 258.51 271.294C258.531 271.294 258.553 271.315 258.574 271.315C258.596 271.358 258.639 271.38 258.682 271.38Z" fill="#FFE323"/>
<path fill-rule="evenodd" clip-rule="evenodd" d="M297.614 109.023C293.919 107.688 290.245 106.375 286.549 105.041C286.42 104.998 286.27 104.933 286.141 104.89C284.186 108.786 281.908 112.92 279.265 117.225C279.179 117.354 279.093 117.505 279.007 117.634C278.148 119.012 277.289 120.368 276.408 121.659C273.722 125.707 271.015 129.345 268.415 132.595C265.729 128.914 261.797 124.092 256.404 119.098C248.777 112.037 240.913 107.129 235.907 104.696C234.897 104.201 233.887 103.771 232.877 103.34C228.902 101.725 224.799 100.692 220.738 100.068C216.269 99.379 211.821 99.1853 207.631 99.3144C205.44 99.379 203.334 99.5297 201.293 99.745C191.603 100.757 183.997 103.125 181.483 103.921C181.247 98.4103 181.182 92.5549 181.354 86.3552C181.397 84.8698 181.44 83.4275 181.505 81.9852C181.591 79.7894 181.719 77.6582 181.87 75.5486C182.063 72.707 182.3 69.9731 182.579 67.3037C182.428 67.2607 182.278 67.2176 182.128 67.1746C177.508 65.8399 172.889 64.4837 168.248 63.149C168.054 63.0844 167.861 63.0414 167.689 62.9768C166.916 68.294 166.271 73.2667 165.691 77.8089C164.853 84.5254 164.423 87.8836 164.251 90.1439C163.22 103.168 162.404 113.372 168.334 118.969C171.428 121.896 175.145 122.413 182.042 123.382C190.421 124.566 197.404 123.532 201.83 122.521C200.949 126.116 200.154 130.249 199.617 134.813C199.252 137.977 199.059 140.969 198.994 143.725C198.951 145.382 198.951 146.954 198.994 148.461C199.961 148.633 200.906 148.805 201.83 148.977C213.497 151.173 223.187 154.187 230.514 156.835C234.338 150.118 238.163 143.423 241.987 136.707C244.415 139.29 248.261 142.821 253.633 145.942C255.244 146.868 256.791 147.772 258.317 148.568C260.315 149.623 262.248 150.527 264.182 151.108C266.395 151.776 268.587 152.034 270.843 151.668C279.201 150.333 284.057 141.206 290.309 129.452C294.671 121.25 297.142 114.039 298.56 109.303C298.259 109.238 297.937 109.131 297.614 109.023Z" fill="#5F2CE6"/>
<path d="M205.139 103.404C203.377 103.749 201.68 102.586 201.336 100.821C201.272 100.455 201.25 100.111 201.315 99.7449C203.334 99.5296 205.461 99.3789 207.653 99.3143C207.674 99.4004 207.696 99.4865 207.717 99.5727C208.04 101.359 206.901 103.06 205.139 103.404Z" fill="#00B657"/>
<path d="M169.687 110.401C171.479 110.401 172.932 108.945 172.932 107.15C172.932 105.355 171.479 103.9 169.687 103.9C167.895 103.9 166.443 105.355 166.443 107.15C166.443 108.945 167.895 110.401 169.687 110.401Z" fill="#FFE323"/>
<path d="M181.891 75.5917C181.741 77.6798 181.634 79.8325 181.526 82.0283C179.915 82.1574 178.411 81.038 178.11 79.402C177.766 77.6367 178.926 75.9361 180.667 75.5917C181.096 75.5056 181.505 75.5056 181.891 75.5917Z" fill="#00B657"/>
<path d="M222.22 135.394C224.012 135.394 225.465 133.938 225.465 132.143C225.465 130.348 224.012 128.893 222.22 128.893C220.429 128.893 218.976 130.348 218.976 132.143C218.976 133.938 220.429 135.394 222.22 135.394Z" fill="#00B657"/>
<path d="M241.085 122.284C242.877 122.284 244.329 120.828 244.329 119.033C244.329 117.238 242.877 115.783 241.085 115.783C239.293 115.783 237.84 117.238 237.84 119.033C237.84 120.828 239.293 122.284 241.085 122.284Z" fill="#FFE323"/>
<path d="M264.204 151.173C262.27 150.592 260.336 149.709 258.338 148.633C258.639 147.449 259.584 146.458 260.873 146.222C262.635 145.877 264.333 147.04 264.676 148.805C264.848 149.644 264.655 150.484 264.204 151.173Z" fill="#00B657"/>
<path d="M201.852 149.02C200.928 148.848 199.961 148.676 199.016 148.504C198.973 146.997 198.973 145.425 199.016 143.768C200.648 143.617 202.174 144.736 202.496 146.394C202.668 147.363 202.41 148.31 201.852 149.02Z" fill="#00B657"/>
<path d="M280.06 123.661C278.513 123.963 276.988 123.102 276.429 121.659C277.289 120.368 278.17 119.011 279.029 117.634C279.115 117.505 279.201 117.354 279.287 117.225C280.877 117.139 282.338 118.236 282.639 119.851C282.961 121.616 281.801 123.317 280.06 123.661Z" fill="#FFE323"/>
<path fill-rule="evenodd" clip-rule="evenodd" d="M182.149 67.2177C177.53 65.883 172.91 64.5268 168.269 63.1921C166.55 60.5658 166.013 57.4659 166.701 54.6459C166.25 54.4306 166.164 54.4091 166.164 54.4091C160.62 52.9883 156.065 55.6361 154.905 53.6557C154.862 53.5911 154.626 53.1605 154.69 52.6869C153.874 52.8376 153.229 52.7731 152.799 52.2564C152.756 52.2134 152.37 51.7398 152.413 51.1585C152.499 50.2974 153.551 49.6732 154.862 49.178C153.444 49.3072 152.434 49.2641 151.961 48.4676C151.919 48.4031 151.618 47.8649 151.79 47.3267C152.198 45.949 155.098 45.7122 157.397 45.54C159.288 45.3893 161.544 45.2386 164.38 45.9705C166.593 46.5302 168.205 47.3913 169.258 47.9725C169.795 48.2739 170.31 48.5753 170.762 48.8551C170.289 47.2406 169.816 45.6261 169.344 43.99C167.088 44.0761 165.132 44.0977 163.564 44.0977C161.243 44.0977 159.739 44.0116 159.245 43.0859C159.202 42.9783 158.987 42.6123 159.095 42.2248C159.31 41.4929 160.47 40.9978 165.884 40.6964C169.193 40.5242 170.826 40.4381 171.234 40.6533C172.695 41.4283 172.996 42.8491 175.037 49.2211C175.424 49.8238 179.936 59.5756 182.149 67.2177Z" fill="#FF8F6D"/>
<path fill-rule="evenodd" clip-rule="evenodd" d="M294.928 93.3083L294.649 93.2653L290.782 92.641L289.858 92.4903L287.451 92.1028L284.121 91.5647H284.057L280.039 90.9188C280.017 90.9404 280.017 90.9834 279.996 91.005C279.974 90.9619 279.953 90.9188 279.931 90.8973C279.308 89.9717 278.728 89.3258 277.933 89.3043C277.245 89.3043 276.515 89.7133 276.193 90.2946C275.935 90.7466 275.548 91.9091 278.019 95.5687C277.245 97.6353 276.988 99.1637 277.74 99.8956C277.804 99.9387 278.105 100.24 278.535 100.283C279.179 100.348 279.867 99.8526 280.511 99.0345C280.511 99.0561 280.49 99.0776 280.49 99.0991C280.146 100.154 280.082 100.972 280.511 101.489C280.769 101.79 281.156 101.898 281.285 101.919C281.629 101.984 281.994 101.833 282.381 101.532C282.488 101.446 282.617 101.338 282.724 101.23C283.82 102.328 285.066 103.469 286.506 104.632C286.527 104.782 286.549 104.911 286.57 105.062C290.266 106.397 293.94 107.71 297.636 109.045C295.831 99.2929 294.95 93.6313 294.928 93.3083Z" fill="#FF8F6D"/>
<path fill-rule="evenodd" clip-rule="evenodd" d="M280.017 88.0343C280.619 87.9482 281.199 87.8405 281.714 87.7329C281.607 87.8836 281.5 88.0558 281.371 88.2496L286.42 89.0676L289.664 89.5842L289.75 89.6058L289.879 89.6273L292.93 90.1224L294.52 90.3807C294.155 88.4864 293.661 87.3669 292.629 86.5489C292.2 86.2045 291.19 85.817 289.17 85.042C286.592 84.0518 285.303 83.5567 283.949 83.5136C282.746 83.4706 283.09 83.7289 279.372 84.3962C276.558 84.8913 275.204 84.9344 274.817 85.8601C274.624 86.3336 274.753 86.8934 274.946 87.2378C275.591 88.3572 277.89 88.3572 280.017 88.0343Z" fill="#FF8F6D"/>
<path d="M167.775 50.0392C165.949 49.1781 163.993 48.6615 161.974 48.5323C159.632 48.3816 157.247 48.7476 155.034 49.6087L154.712 48.8122C157.032 47.908 159.546 47.5205 162.017 47.6712C164.144 47.8219 166.185 48.3386 168.119 49.2642L167.775 50.0392Z" fill="black"/>
<path d="M154.991 53.0099L154.389 52.3856C154.561 52.2134 158.644 48.4461 167.345 51.4599L167.066 52.2779C158.858 49.4364 155.034 52.9883 154.991 53.0099Z" fill="black"/>
<path d="M286.721 96.9465C284.615 95.784 282.746 94.3202 281.177 92.555C280.404 91.6724 279.695 90.7252 279.072 89.7134L279.802 89.2614C280.404 90.2301 281.07 91.1342 281.822 91.9738C283.326 93.6744 285.109 95.0952 287.15 96.1931L286.721 96.9465Z" fill="black"/>
<defs>
<linearGradient id="paint0_linear_492_173" x1="226.873" y1="94.9473" x2="241.077" y2="94.9473" gradientUnits="userSpaceOnUse">
<stop offset="0.5605"/>
<stop offset="1" stop-color="#1244EE"/>
</linearGradient>
</defs>
</svg>
